<svg xmlns="http://www.w3.org/2000/svg" width="250" height="160"><path style="opacity:1;fill:#ff7a57;fill-opacity:1;stroke:#000;stroke-width:1;stroke-opacity:0" d="M16.866 115.541 4.648 101.745l36.215-40.89 36.214-40.891L89.35 33.82l12.275 13.858-36.16 40.83c-19.889 22.455-36.211 40.829-36.272 40.829-.061 0-5.609-6.209-12.328-13.797z"/><g style="stroke-width:.6747129"><path style="opacity:1;fill:#ff7a57;fill-opacity:1;stroke:#000;stroke-width:.6747129;stroke-opacity:0" d="M532.115 500.586v-17.589l12.114-12.182 12.114-12.182 8.828 8.732 8.828 8.73-20.807 20.987c-11.443 11.543-20.867 21.01-20.942 21.04-.075.028-.135-7.817-.135-17.536z" transform="matrix(1.3948 0 0 1.57489 -626.7 -702.348)"/></g><g style="stroke-width:.6747129"><path style="opacity:1;fill:#ff7a57;fill-opacity:1;stroke:#000;stroke-width:.6747129;stroke-opacity:0" d="m513.371 529.314-8.72-8.72v-16.732l8.76-8.759 8.76-8.759v25.846c0 14.215-.018 25.845-.04 25.845-.022 0-3.964-3.924-8.76-8.72z" transform="matrix(1.3948 0 0 1.57489 -626.7 -702.348)"/></g><g style="stroke-width:.6747129"><path style="opacity:1;fill:#ff7a57;fill-opacity:1;stroke:#000;stroke-width:.6747129;stroke-opacity:0" d="m565.142 529.314-8.72-8.72v-16.732l8.76-8.759 8.76-8.759v25.846c0 14.215-.018 25.845-.04 25.845-.022 0-3.964-3.924-8.76-8.72z" transform="matrix(1.3948 0 0 1.57489 -626.7 -702.348)"/></g><path style="opacity:1;fill:#ff7a57;fill-opacity:1;stroke:#000;stroke-width:1;stroke-opacity:0" d="M187.705 90.32c0-12.95-.064-25.38-.142-27.624l-.142-4.079 16.912-19.265c9.302-10.595 16.97-19.286 17.04-19.313.069-.027 5.66 6.13 12.424 13.683l12.298 13.732-16.03 18.259a31992.527 31992.527 0 0 1-29.194 33.206l-13.166 14.946z"/></svg>