<svg xmlns="http://www.w3.org/2000/svg" width="250" height="250"><defs><clipPath clipPathUnits="userSpaceOnUse" id="g"><path d="M300.106 205.498h.048v-.05h-.048z"/></clipPath><clipPath clipPathUnits="userSpaceOnUse" id="f"><path d="M301.694 197.486h.94v-.973h-.94z"/></clipPath><clipPath clipPathUnits="userSpaceOnUse" id="e"><path d="M296.904 202.278h1.03v-1.066h-1.03z"/></clipPath><clipPath clipPathUnits="userSpaceOnUse" id="d"><path d="M281.668 295.471h.996v-1.031h-.996z"/></clipPath><clipPath clipPathUnits="userSpaceOnUse" id="c"><path d="M284.052 290.036h.973v-1.007h-.973z"/></clipPath><clipPath clipPathUnits="userSpaceOnUse" id="b"><path d="M208.415 269.752h1.076v-1.113h-1.076z"/></clipPath><clipPath clipPathUnits="userSpaceOnUse" id="a"><path d="M212.968 275.172h1.601v-1.106h-1.601z"/></clipPath></defs><g style="stroke-width:.90218633"><path d="M0 0s-36.339.771-57.783 52.608l-6.375-1.182s7.132-61.17 60.497-78.633z" style="fill:#ffccc3;fill-opacity:1;fill-rule:nonzero;stroke:none;stroke-width:.90218633" transform="matrix(1.41825 0 0 -1.54004 109.12 180.861)"/></g><g style="stroke-width:.90218633"><path d="M0 0c-3.952-2.199-8.847 4.387-5.875 7.414 3.562 3.465 3.554-3.004 6.459-1.49 2.904 1.513.169 6.497-1.973 7.288-3.389 1.239-3.837 1.056-6.142-1.02-.46 5.928-2.863 14.119-5.046 10.878-1.693-2.514.85-9.322 1.554-12.369-.714 1.209-4.09 9.002-6.204 6.793-1.362-1.743 3.161-10.125 3.874-11.335.01-.014.018-.032.028-.047-.583.436-1.062.772-1.313.948-1.671.957-5.269 4.329-5.441 1.044-.099-3.323 5.714-6.64 8.589-8.491.386-1.368.963-2.533 2.091-3.105 3.381 2.598 4.056-.287 7.389-1.202 2.846-1 5.16.075 5.999 2.893C5.524 4.645-2.626 6.38 0 0" style="fill:#ffccc3;fill-opacity:1;fill-rule:nonzero;stroke:none;stroke-width:.90218633" transform="matrix(1.41825 0 0 -1.54004 34.424 101.067)"/></g><g style="stroke-width:.90218633"><path d="M0 0c2.281-.742 19.464-31.809 29.11-61.647l-105.563.955s4.356 30.472 17.969 54.331z" style="fill:#fff;fill-opacity:1;fill-rule:nonzero;stroke:none;stroke-width:.90218633" transform="matrix(1.41825 0 0 -1.54004 196.738 155.227)"/></g><g style="stroke-width:.90218633"><path d="M0 0a316.113 316.113 0 0 1-2.015 4.14c-12.414-.011-24.82-.116-37.243.315-13.055.453-26.187 2-39.27 2.545a144.188 144.188 0 0 1-1.559-3.767C-67.04 1.213-53.453.94-40.434.384-27.023-.189-13.462-.528 0 0" style="fill:#00cef1;fill-opacity:1;fill-rule:nonzero;stroke:none;stroke-width:.90218633" transform="matrix(1.41825 0 0 -1.54004 216.984 193.724)"/></g><g style="stroke-width:.90218633"><path d="M0 0a381.292 381.292 0 0 1-1.408 3.336c-14.991.012-29.983.34-44.96 1.02-9.994.456-19.982 1.066-29.96 1.779-4.842.345-10.027 1.12-15.171 1.432-.353-1.125-.689-2.23-1.01-3.319C-61.645 2.079-30.949.104 0 0" style="fill:#00cef1;fill-opacity:1;fill-rule:nonzero;stroke:none;stroke-width:.90218633" transform="matrix(1.41825 0 0 -1.54004 227.217 218.606)"/></g><g style="stroke-width:.90218633"><path d="M0 0c-17.133-.427-34.492-.235-51.685-1.171a197.646 197.646 0 0 1-.717-3.391c17.456-.121 35.028.953 52.402 1.38 16.169.398 32.349.88 48.521.687-.392 1.057-.79 2.11-1.194 3.16C31.554.874 15.774.393 0 0" style="fill:#00cef1;fill-opacity:1;fill-rule:nonzero;stroke:none;stroke-width:.90218633" transform="matrix(1.41825 0 0 -1.54004 164.36 231.207)"/></g><g style="stroke-width:.90218633"><path d="M0 0c2.29 2.5 6.454 3.413 9.174 1.389 1.763-1.312 2.691-3.582 4.595-4.681 1.63-.94 3.665-.838 5.409-1.545 2.487-1.009 4.133-3.885 3.537-6.501-.426-1.87-1.863-3.404-3.57-4.278-1.708-.874-3.663-1.154-5.581-1.175-5.016-.054-9.523 2.327-13.495 5.382C-3.715-8.498-3.078-3.359 0 0" style="fill:#004b7f;fill-opacity:1;fill-rule:nonzero;stroke:none;stroke-width:.90218633" transform="matrix(1.41825 0 0 -1.54004 205.636 13.667)"/></g><g style="stroke-width:.90218633"><path d="M0 0s2.717 3.68 4.383 3.054c1.665-.625 5.6-7.7 5.6-8.591 0-1.837-3.64-3.088-3.64-3.088z" style="fill:#00cef1;fill-opacity:1;fill-rule:nonzero;stroke:none;stroke-width:.90218633" transform="matrix(1.41825 0 0 -1.54004 196.738 26.244)"/></g><g style="stroke-width:.90218633"><path d="M0 0s-12.707 11.453-17.225 6.935C-21.744 2.416-12.792-6.622 0-3.071Z" style="fill:#ffccc3;fill-opacity:1;fill-rule:nonzero;stroke:none;stroke-width:.90218633" transform="matrix(1.41825 0 0 -1.54004 122.177 93.967)"/></g><g style="stroke-width:.90218633"><path d="M0 0s2.229 25.059 38.452 28.286c36.223 3.228 36.546-48.13 36.546-48.13S74.029-41.109 59.505-42.4L32.393-4.09Z" style="fill:#004b7f;fill-opacity:1;fill-rule:nonzero;stroke:none;stroke-width:.90218633" transform="matrix(1.41825 0 0 -1.54004 115.1 60.242)"/></g><g style="stroke-width:.90218633"><path d="M0 0s-6.879 46.736 29.862 44.384C66.604 42.033 66.604 8.958 66.604 8.958S38.624-29.1 0 0" style="fill:#ffccc3;fill-opacity:1;fill-rule:nonzero;stroke:none;stroke-width:.90218633" transform="matrix(1.41825 0 0 -1.54004 111.272 103.256)"/></g><g style="stroke-width:.90218633"><path d="M0 0s12.706 11.453 17.225 6.935C21.744 2.416 12.792-6.622 0-3.071Z" style="fill:#ffccc3;fill-opacity:1;fill-rule:nonzero;stroke:none;stroke-width:.90218633" transform="matrix(1.41825 0 0 -1.54004 205.734 93.967)"/></g><g style="stroke-width:.90218633"><path d="M0 0s10.293-8.404 21.877-5.137C33.461-1.869 45.691-16.153 66.604 8.958h3.63s1.643-69.339-35.683-78.844c-37.326-9.504-70.294 8.317-43.86 44.849C-9.309-25.037.203-15.01 0 0" style="fill:#004b7f;fill-opacity:1;fill-rule:nonzero;stroke:none;stroke-width:.90218633" transform="matrix(1.41825 0 0 -1.54004 111.272 103.256)"/></g><g style="stroke-width:.90218633"><path d="M0 0c2.107 1.059 4.648.845 6.895.129 2.247-.715 4.317-1.893 6.513-2.75a24.423 24.423 0 0 1 14.393-1.007c3.139.743 6.197 2.121 9.423 2.04 2.831-.07 5.498-1.261 8.077-2.431l8.67-3.933C49.182-.735 41.941 4.824 33.732 7.586c-8.21 2.762-17.336 2.71-25.514-.145C4.81 6.252 1.437 4.481-.649 1.537" style="fill:#004b7f;fill-opacity:1;fill-rule:nonzero;stroke:none;stroke-width:.90218633" transform="matrix(1.41825 0 0 -1.54004 126.41 42.567)"/></g><g style="stroke-width:.90218633"><path d="M0 0v17.596l-4.521-9.608-1.798-5.373.272-4.794 1.798-1.362 2.233 1.035z" style="fill:#ffccc3;fill-opacity:1;fill-rule:nonzero;stroke:none;stroke-width:.90218633" transform="matrix(1.41825 0 0 -1.54004 148.43 110.617)"/></g><g style="stroke-width:.90218633"><path d="M0 0c-1.422-2.926-2.799-5.874-3.982-8.891-.87-2.218-2.144-4.264-2.851-6.549-.656-2.121-1.066-5.372 1.243-6.669.123-.069.259-.131.4-.116.128.015.925.356 1.029.432.944.688 1.594 1.639 2.446 2.422.228.21.634.392.801.131.1-.156.022-.359-.062-.524a9.329 9.329 0 0 0-2.499-3.051c-.717-.569-1.607-1.049-2.51-.898-.887.148-1.582.89-1.926 1.721-1.28 3.099.26 6.619 1.276 9.55C-5.104-8.021-2.922-3.821-.783.368-.534.855.238.489 0 0" style="fill:#d46c6c;fill-opacity:1;fill-rule:nonzero;stroke:none;stroke-width:.90218633" transform="matrix(1.41825 0 0 -1.54004 150.36 80.494)"/></g><g style="stroke-width:.90218633"><path d="M0 0c.318-.858-.181-1.794-1.115-2.09-.934-.296-1.459.316-1.779 1.174-.318.858.115 1.773 1.048 2.069C-.911 1.449-.318.858 0 0" style="fill:#303030;fill-opacity:1;fill-rule:nonzero;stroke:none;stroke-width:.90218633" transform="matrix(1.41825 0 0 -1.54004 166.463 85.413)"/></g><g style="stroke-width:.90218633"><path d="M0 0c-.633-.671-1.75-.707-2.494-.08-.745.627-.444 1.35.189 2.021a1.773 1.773 0 0 0 2.441.125C.88 1.439.633.671 0 0" style="fill:#303030;fill-opacity:1;fill-rule:nonzero;stroke:none;stroke-width:.90218633" transform="matrix(1.41825 0 0 -1.54004 137.608 87.647)"/></g><g style="stroke-width:.90218633"><path d="M0 0a20.146 20.146 0 0 0-3.165 1.354c-.977.513-2.225.905-2.401 2.077-.074.486.065 1.149.622 1.349 1.331.479 2.11-.167 3.226-.843A20.547 20.547 0 0 0 1.19 1.838C2.082 1.064 1.09-.356 0 0" style="fill:#004b7f;fill-opacity:1;fill-rule:nonzero;stroke:none;stroke-width:.90218633" transform="matrix(1.41825 0 0 -1.54004 172.163 77.55)"/></g><g style="stroke-width:.90218633"><path d="M0 0c1.539.388 3.152.658 4.74.452 1.57-.205 1.611-2.771.019-3.008-1.592-.236-3.202-.01-4.745.35C-1.13-1.937-1.168-.295 0 0" style="fill:#004b7f;fill-opacity:1;fill-rule:nonzero;stroke:none;stroke-width:.90218633" transform="matrix(1.41825 0 0 -1.54004 134.852 70.615)"/></g><g style="stroke-width:.90218633"><path d="M0 0c1.978 1.114 3.397 3.165 3.454 5.332.009.321-.013.649-.138.948-.382.919-1.615 1.259-2.654 1.112-1.038-.147-1.985-.644-2.996-.917a7.056 7.056 0 0 0-3.638-.001c-.694.187-1.356.482-2.068.602-.711.119-1.519.03-2.037-.452-.504-.47-.62-1.196-.594-1.862C-10.468-.641-4.455-2.51 0 0" style="fill:#a04340;fill-opacity:1;fill-rule:nonzero;stroke:none;stroke-width:.90218633" transform="matrix(1.41825 0 0 -1.54004 155.401 133.583)"/></g><g style="stroke-width:.90218633"><path d="M0 0c-.17-1.072-2.102-1.654-4.313-1.301-2.213.353-3.87 1.509-3.7 2.581.171 1.072 3.104 1.494 5.317 1.14C-.483 2.067.171 1.072 0 0" style="fill:#ffb0a0;fill-opacity:1;fill-rule:nonzero;stroke:none;stroke-width:.90218633" transform="matrix(1.41825 0 0 -1.54004 174.092 100.633)"/></g><g style="stroke-width:.90218633"><path d="M0 0c.155 1.075 2.079 1.684 4.296 1.362 2.217-.323 3.889-1.455 3.734-2.53-.155-1.074-3.082-1.538-5.3-1.215C.513-2.061-.155-1.074 0 0" style="fill:#ffb0a0;fill-opacity:1;fill-rule:nonzero;stroke:none;stroke-width:.90218633" transform="matrix(1.41825 0 0 -1.54004 123.271 98.958)"/></g><g style="stroke-width:.90218633"><path d="M0 0c2.965 2.555 5.647 5.592 9.039 7.598 3.666 2.168 7.789 2.857 11.815 4.011.203.058.114.338-.084.308C11.819 10.59 5.927 6.614-.351.352-.581.123-.24-.207 0 0" style="fill:#006696;fill-opacity:1;fill-rule:nonzero;stroke:none;stroke-width:.90218633" transform="matrix(1.41825 0 0 -1.54004 137.22 39.577)"/></g><g style="stroke-width:.90218633"><path d="M0 0c7.518 7.002 15.819 10.56 25.771 12.581.141.029.11.257-.034.251C15.909 12.417 6.37 7.37-.316.316-.515.107-.211-.196 0 0" style="fill:#006696;fill-opacity:1;fill-rule:nonzero;stroke:none;stroke-width:.90218633" transform="matrix(1.41825 0 0 -1.54004 149.725 41.142)"/></g><g style="stroke-width:.90218633"><path d="M0 0c6.562 5.117 13.563 7.869 21.365 10.501.23.078.133.392-.098.356C13.328 9.637 5.837 5.308-.302.301-.516.126-.212-.166 0 0" style="fill:#006696;fill-opacity:1;fill-rule:nonzero;stroke:none;stroke-width:.90218633" transform="matrix(1.41825 0 0 -1.54004 164.512 45.309)"/></g><g style="stroke-width:.90218633"><path d="M0 0c3.073 1.494 6.816 3.648 8.753 6.564.151.229-.163.57-.394.394C6.992 5.915 5.848 4.6 4.484 3.538A30.207 30.207 0 0 0-.297.509C-.637.334-.339-.165 0 0" style="fill:#006696;fill-opacity:1;fill-rule:nonzero;stroke:none;stroke-width:.90218633" transform="matrix(1.41825 0 0 -1.54004 187.243 43.76)"/></g><g style="stroke-width:.90218633"><path d="M0 0c2.326 1.442 4.896 4.024 5.215 6.887.03.27-.375.353-.496.134-.628-1.132-1.011-2.347-1.768-3.42A12.568 12.568 0 0 0-.258.441C-.526.258-.282-.175 0 0" style="fill:#006696;fill-opacity:1;fill-rule:nonzero;stroke:none;stroke-width:.90218633" transform="matrix(1.41825 0 0 -1.54004 199.89 52.737)"/></g><g style="stroke-width:.90218633"><path d="M0 0c1.776 2.01 3.953 4.628 4.497 7.316a.217.217 0 0 1-.395.167c-.75-1.091-1.216-2.375-1.894-3.517A26.343 26.343 0 0 0-.377.376C-.597.118-.229-.259 0 0" style="fill:#006696;fill-opacity:1;fill-rule:nonzero;stroke:none;stroke-width:.90218633" transform="matrix(1.41825 0 0 -1.54004 205.993 64.873)"/></g><g style="stroke-width:.90218633"><path d="M0 0c1.44 2.006 2.677 4.471 2.882 6.968.019.248-.362.288-.426.058C1.777 4.558 1.092 2.358-.398.233-.569-.012-.171-.239 0 0" style="fill:#006696;fill-opacity:1;fill-rule:nonzero;stroke:none;stroke-width:.90218633" transform="matrix(1.41825 0 0 -1.54004 212.457 79.24)"/></g><g style="stroke-width:.90218633"><path d="M0 0c-.025-.615-.05-1.229-.058-1.845-.008-.553-.075-1.122.09-1.656.083-.27.464-.27.548 0 .163.532.097 1.105.089 1.656C.661-1.229.636-.615.611 0 .595.393.017.393 0 0" style="fill:#006696;fill-opacity:1;fill-rule:nonzero;stroke:none;stroke-width:.90218633" transform="matrix(1.41825 0 0 -1.54004 114.976 119.5)"/></g><g style="stroke-width:.90218633"><path d="M0 0c-.097-1.246-.61-2.218-1.033-3.364-.085-.231.238-.389.398-.231C.279-2.686.589-1.241.667 0 .694.431.033.425 0 0" style="fill:#006696;fill-opacity:1;fill-rule:nonzero;stroke:none;stroke-width:.90218633" transform="matrix(1.41825 0 0 -1.54004 114.933 135.766)"/></g><g style="stroke-width:.90218633"><path d="M0 0c-.061-1.003-.369-2.236-.085-3.218.079-.276.481-.277.561 0C.759-2.234.451-1.003.391 0 .375.251.015.251 0 0" style="fill:#006696;fill-opacity:1;fill-rule:nonzero;stroke:none;stroke-width:.90218633" transform="matrix(1.41825 0 0 -1.54004 124.444 137.524)"/></g><g style="stroke-width:.90218633"><path d="M0 0c.103-.781.113-1.689.516-2.385.093-.161.375-.141.415.054C1.094-1.542.826-.683.676.091.604.467-.051.387 0 0" style="fill:#006696;fill-opacity:1;fill-rule:nonzero;stroke:none;stroke-width:.90218633" transform="matrix(1.41825 0 0 -1.54004 154.134 144.129)"/></g><g style="stroke-width:.90218633"><path d="M0 0c-.004-.573-.105-1.224.079-1.772a.226.226 0 0 1 .432 0C.695-1.226.594-.572.59 0 .587.379.003.38 0 0" style="fill:#006696;fill-opacity:1;fill-rule:nonzero;stroke:none;stroke-width:.90218633" transform="matrix(1.41825 0 0 -1.54004 164.787 138.843)"/></g><g style="stroke-width:.90218633"><path d="M0 0c.216-.783.423-1.551.797-2.277.095-.184.398-.099.39.105-.035.818-.235 1.59-.434 2.38C.63.694-.135.486 0 0" style="fill:#006696;fill-opacity:1;fill-rule:nonzero;stroke:none;stroke-width:.90218633" transform="matrix(1.41825 0 0 -1.54004 168.758 123.606)"/></g><g style="stroke-width:.90218633"><path d="M0 0c-.42-1.053-.697-2.648-.186-3.708.132-.273.584-.203.649.084.125.556.041 1.133.064 1.699.026.614.118 1.218.191 1.828C.771.346.139.348 0 0" style="fill:#006696;fill-opacity:1;fill-rule:nonzero;stroke:none;stroke-width:.90218633" transform="matrix(1.41825 0 0 -1.54004 181.258 125.931)"/></g><g style="stroke-width:.90218633"><path d="M0 0c.048-1.105-.063-2.473.362-3.51.108-.262.523-.33.603 0C1.231-2.414.924-1.105.802 0 .747.501-.023.526 0 0" style="fill:#006696;fill-opacity:1;fill-rule:nonzero;stroke:none;stroke-width:.90218633" transform="matrix(1.41825 0 0 -1.54004 191.87 120.81)"/></g><g style="stroke-width:.90218633"><path d="M0 0c.382-.511.709-1.021.863-1.65.14-.571.074-1.158.184-1.735.057-.295.432-.272.577-.075C2.525-2.237 1.619-.263.544.544.231.778-.233.312 0 0" style="fill:#006696;fill-opacity:1;fill-rule:nonzero;stroke:none;stroke-width:.90218633" transform="matrix(1.41825 0 0 -1.54004 202.893 109.562)"/></g><g style="stroke-width:.90218633"><path d="M0 0a7.154 7.154 0 0 1-1.219-2.022c-.249-.639-.57-1.514-.235-2.161.131-.252.466-.203.607 0 .325.466.285 1.145.451 1.688A5.92 5.92 0 0 0 .597-.598C.922-.178.355.422 0 0" style="fill:#006696;fill-opacity:1;fill-rule:nonzero;stroke:none;stroke-width:.90218633" transform="matrix(1.41825 0 0 -1.54004 102.846 148.5)"/></g><g style="stroke-width:.90218633"><path d="M0 0a9.369 9.369 0 0 0-.631-1.249c-.212-.35-.481-.648-.575-1.051-.083-.353.303-.697.636-.489C.203-2.305.595-1.068.883-.244 1.082.324.22.529 0 0" style="fill:#006696;fill-opacity:1;fill-rule:nonzero;stroke:none;stroke-width:.90218633" transform="matrix(1.41825 0 0 -1.54004 125.48 120.838)"/></g><g style="stroke-width:.90218633"><path d="M0 0c-.058-.569-.255-1.264-.056-1.812.106-.291.542-.41.707-.093C.94-1.348.841-.615.859 0 .876.562.055.539 0 0" style="fill:#006696;fill-opacity:1;fill-rule:nonzero;stroke:none;stroke-width:.90218633" transform="matrix(1.41825 0 0 -1.54004 153.77 115.59)"/></g><g style="stroke-width:.90218633"><path d="M0 0c-.01-.57-.096-1.153.137-1.684.115-.262.577-.262.692 0C1.061-1.155.976-.567.966 0 .954.622.012.623 0 0" style="fill:#006696;fill-opacity:1;fill-rule:nonzero;stroke:none;stroke-width:.90218633" transform="matrix(1.41825 0 0 -1.54004 160.822 116.469)"/></g><g style="stroke-width:.90218633"><path d="M0 0c-.447-.469-1.076-1.045-.979-1.737.023-.168.265-.302.419-.238.567.235.799.898 1.178 1.358C.968-.192.395.415 0 0" style="fill:#006696;fill-opacity:1;fill-rule:nonzero;stroke:none;stroke-width:.90218633" transform="matrix(1.41825 0 0 -1.54004 137.328 117.41)"/></g><g style="stroke-width:.90218633"><path d="M0 0c-.301-.531-.851-1.139-.713-1.773.032-.144.216-.256.359-.203.61.229.815.994 1.102 1.539C1.006.055.276.487 0 0" style="fill:#006696;fill-opacity:1;fill-rule:nonzero;stroke:none;stroke-width:.90218633" transform="matrix(1.41825 0 0 -1.54004 133.017 127.534)"/></g><g style="stroke-width:.90218633"><path d="M0 0c-.176-.276-.245-.57-.305-.89-.042-.226.036-.385.211-.52.119-.09.215-.07.355-.046.155.028.279.178.321.321.092.314.17.614.139.94C.685.179.217.341 0 0" style="fill:#006696;fill-opacity:1;fill-rule:nonzero;stroke:none;stroke-width:.90218633" transform="matrix(1.41825 0 0 -1.54004 147.017 118.635)"/></g><g style="stroke-width:.90218633"><path d="M0 0c-.256-.45-.551-.909-.674-1.417-.077-.315.28-.481.51-.296.407.328.699.801.998 1.226C1.189.016.312.546 0 0" style="fill:#006696;fill-opacity:1;fill-rule:nonzero;stroke:none;stroke-width:.90218633" transform="matrix(1.41825 0 0 -1.54004 115.998 150.664)"/></g><g style="stroke-width:.90218633"><path d="M0 0c-.391-.708-1.065-1.527-1.036-2.364.006-.173.2-.307.358-.206C.027-2.121.32-1.121.681-.398.905.052.247.447 0 0" style="fill:#006696;fill-opacity:1;fill-rule:nonzero;stroke:none;stroke-width:.90218633" transform="matrix(1.41825 0 0 -1.54004 131.831 150.585)"/></g><g style="stroke-width:.90218633"><path d="M0 0a6.771 6.771 0 0 0-.316-1.503c-.123-.367-.318-.672-.196-1.055.028-.088.134-.171.231-.131C.558-2.348.636-.787.696 0 .73.449.043.44 0 0" style="fill:#006696;fill-opacity:1;fill-rule:nonzero;stroke:none;stroke-width:.90218633" transform="matrix(1.41825 0 0 -1.54004 145.82 152.264)"/></g><g style="stroke-width:.90218633"><path d="M0 0c-.038-.745-.309-1.437-.359-2.171-.02-.301.37-.339.516-.14C.616-1.683.674-.755.703 0 .72.453.022.45 0 0" style="fill:#006696;fill-opacity:1;fill-rule:nonzero;stroke:none;stroke-width:.90218633" transform="matrix(1.41825 0 0 -1.54004 138.86 140.507)"/></g><g style="stroke-width:.90218633"><path d="M0 0c-.269-.643-.658-1.534-.352-2.207.109-.238.435-.18.558 0 .203.296.183.582.25.931.07.365.182.717.311 1.065C.948.275.192.46 0 0" style="fill:#006696;fill-opacity:1;fill-rule:nonzero;stroke:none;stroke-width:.90218633" transform="matrix(1.41825 0 0 -1.54004 173.886 142.448)"/></g><g style="stroke-width:.90218633"><path d="m0 0-.097-1.367c-.025-.379-.075-.608.213-.875.079-.073.231-.114.327-.042C1.029-1.845.816-.668.845 0 .868.547.038.538 0 0" style="fill:#006696;fill-opacity:1;fill-rule:nonzero;stroke:none;stroke-width:.90218633" transform="matrix(1.41825 0 0 -1.54004 189.16 139.453)"/></g><g style="stroke-width:.90218633"><path d="M0 0a8.317 8.317 0 0 0-.366-1.542c-.15-.44-.374-.817-.284-1.288.04-.206.29-.268.454-.184.865.444.947 2.046.998 2.906C.828.343.063.459 0 0" style="fill:#006696;fill-opacity:1;fill-rule:nonzero;stroke:none;stroke-width:.90218633" transform="matrix(1.41825 0 0 -1.54004 200.514 133.67)"/></g><g style="stroke-width:.90218633"><path d="M0 0a28.453 28.453 0 0 1-.843-1.494c-.227-.435-.465-.791-.367-1.284.049-.248.345-.32.542-.221.46.23.603.749.805 1.196.221.491.422.985.616 1.486C.925.128.233.388 0 0" style="fill:#006696;fill-opacity:1;fill-rule:nonzero;stroke:none;stroke-width:.90218633" transform="matrix(1.41825 0 0 -1.54004 93.533 166.9)"/></g><g style="stroke-width:.90218633"><path d="M0 0c.021-.659-.249-1.297-.201-1.94.023-.304.432-.559.667-.277.531.638.44 1.55.315 2.322C.709.55-.015.442 0 0" style="fill:#006696;fill-opacity:1;fill-rule:nonzero;stroke:none;stroke-width:.90218633" transform="matrix(1.41825 0 0 -1.54004 107.768 162.442)"/></g><g style="stroke-width:.90218633"><path d="M0 0c-.282-.653-.696-1.357-.694-2.085.001-.309.376-.451.593-.246.502.471.717 1.197.984 1.815C1.14.082.26.604 0 0" style="fill:#006696;fill-opacity:1;fill-rule:nonzero;stroke:none;stroke-width:.90218633" transform="matrix(1.41825 0 0 -1.54004 121.639 163.635)"/></g><g style="stroke-width:.90218633"><path d="M0 0a7.423 7.423 0 0 0-.493-1.411c-.176-.367-.431-.703-.414-1.122.011-.268.275-.404.507-.291C.38-2.448.646-.987.794-.219.893.295.131.521 0 0" style="fill:#006696;fill-opacity:1;fill-rule:nonzero;stroke:none;stroke-width:.90218633" transform="matrix(1.41825 0 0 -1.54004 98.55 177.71)"/></g><g style="stroke-width:.90218633"><path d="M0 0c-.054-.647-.306-1.383-.136-2.02.049-.18.321-.281.451-.119C.771-1.57.766-.701.831 0 .879.53.044.531 0 0" style="fill:#006696;fill-opacity:1;fill-rule:nonzero;stroke:none;stroke-width:.90218633" transform="matrix(1.41825 0 0 -1.54004 114.207 179.988)"/></g><g style="stroke-width:.90218633"><path d="M0 0c0-.401-.054-.782-.167-1.168-.101-.342-.252-.628-.219-.993.026-.296.322-.509.603-.347.791.458.828 1.705.741 2.508C.894.6 0 .631 0 0" style="fill:#006696;fill-opacity:1;fill-rule:nonzero;stroke:none;stroke-width:.90218633" transform="matrix(1.41825 0 0 -1.54004 102.817 193.324)"/></g><g style="stroke-width:.90218633"><path d="M0 0c-.001-.727-.163-1.645.174-2.309.094-.185.396-.185.49 0C1-1.646.839-.725.838 0 .837.539.001.54 0 0" style="fill:#006696;fill-opacity:1;fill-rule:nonzero;stroke:none;stroke-width:.90218633" transform="matrix(1.41825 0 0 -1.54004 135.866 166.302)"/></g><g style="stroke-width:.90218633"><path d="M0 0a3.51 3.51 0 0 0-.161-1.225c-.104-.339-.246-.6-.141-.951a.347.347 0 0 1 .419-.238c.894.223.964 1.677.905 2.414C.97.648-.03.664 0 0" style="fill:#006696;fill-opacity:1;fill-rule:nonzero;stroke:none;stroke-width:.90218633" transform="matrix(1.41825 0 0 -1.54004 126.328 183.502)"/></g><g style="stroke-width:.90218633"><path d="M0 0c-.04-.557-.357-1.617.144-2.012.094-.074.211-.106.322-.041C1.058-1.707.862-.596.895 0 .926.577.042.57 0 0" style="fill:#006696;fill-opacity:1;fill-rule:nonzero;stroke:none;stroke-width:.90218633" transform="matrix(1.41825 0 0 -1.54004 120.46 202.097)"/></g><g style="stroke-width:.90218633"><path d="M0 0c-.026-.596-.17-1.242.092-1.792.122-.256.553-.256.675 0 .26.545.118 1.2.092 1.792C.835.553.024.554 0 0" style="fill:#006696;fill-opacity:1;fill-rule:nonzero;stroke:none;stroke-width:.90218633" transform="matrix(1.41825 0 0 -1.54004 140.86 199.29)"/></g><g style="stroke-width:.90218633"><path d="M0 0c.163-.647.096-1.297.225-1.937.061-.307.508-.274.588 0C1.005-1.282.78-.471.575.158.457.521-.095.375 0 0" style="fill:#006696;fill-opacity:1;fill-rule:nonzero;stroke:none;stroke-width:.90218633" transform="matrix(1.41825 0 0 -1.54004 147.358 177.13)"/></g><g style="stroke-width:.90218633"><path d="M0 0c-.037-.7-.163-1.453.033-2.138.096-.335.514-.282.63 0C.931-1.48.883-.697.923 0 .958.594.031.593 0 0" style="fill:#006696;fill-opacity:1;fill-rule:nonzero;stroke:none;stroke-width:.90218633" transform="matrix(1.41825 0 0 -1.54004 159.403 160.863)"/></g><g style="stroke-width:.90218633"><path d="M0 0c-.01-.438-.037-.874-.071-1.312-.031-.391-.113-.783.002-1.163.073-.243.39-.275.525-.068C.885-1.886.79-.757.796 0 .8.513.012.512 0 0" style="fill:#006696;fill-opacity:1;fill-rule:nonzero;stroke:none;stroke-width:.90218633" transform="matrix(1.41825 0 0 -1.54004 179.36 153.668)"/></g><g style="stroke-width:.90218633"><path d="M0 0c-.008-.65-.191-1.531.152-2.105a.338.338 0 0 1 .577 0C1.072-1.529.888-.651.88 0 .874.566.006.567 0 0" style="fill:#006696;fill-opacity:1;fill-rule:nonzero;stroke:none;stroke-width:.90218633" transform="matrix(1.41825 0 0 -1.54004 169.77 171.917)"/></g><g style="stroke-width:.90218633"><path d="M0 0c-.151-.827-.547-2.209-.083-2.972a.266.266 0 0 1 .454 0c.224.355.21.75.232 1.162.027.537.083 1.069.165 1.599C.843.285.094.509 0 0" style="fill:#006696;fill-opacity:1;fill-rule:nonzero;stroke:none;stroke-width:.90218633" transform="matrix(1.41825 0 0 -1.54004 193.288 156.49)"/></g><g style="stroke-width:.90218633"><path d="M0 0a9.135 9.135 0 0 0-.205-1.229c-.085-.354-.235-.682-.198-1.05.034-.331.456-.599.721-.298C.87-1.953.896-.8.951 0 .994.616.06.601 0 0" style="fill:#006696;fill-opacity:1;fill-rule:nonzero;stroke:none;stroke-width:.90218633" transform="matrix(1.41825 0 0 -1.54004 180.547 178.234)"/></g><g style="stroke-width:.90218633"><path d="M0 0c-.156-.46-.304-.922-.437-1.388-.119-.415-.257-.782-.083-1.198.097-.231.356-.331.558-.147.325.296.368.666.461 1.087.105.474.223.944.35 1.412C.998.317.181.533 0 0" style="fill:#006696;fill-opacity:1;fill-rule:nonzero;stroke:none;stroke-width:.90218633" transform="matrix(1.41825 0 0 -1.54004 180.547 178.234)"/></g><g style="stroke-width:.90218633"><path d="M0 0c.854.302 1.58.73 2.225 1.372.464.462 1.304 1.317 1.106 2.037-.029.107-.155.19-.266.151-.61-.215-.956-1.051-1.377-1.512A9.79 9.79 0 0 0-.194.46C-.422.313-.282-.1 0 0" style="fill:#006696;fill-opacity:1;fill-rule:nonzero;stroke:none;stroke-width:.90218633" transform="matrix(1.41825 0 0 -1.54004 212.37 107.957)"/></g><g style="stroke-width:.90218633"><path d="M0 0c.921.681 1.878 1.301 2.923 1.776 1.152.525 2.398.722 3.557 1.195.31.127.277.569-.08.593C3.98 3.731 1.334 2.035-.284.368-.462.185-.222-.164 0 0" style="fill:#006696;fill-opacity:1;fill-rule:nonzero;stroke:none;stroke-width:.90218633" transform="matrix(1.41825 0 0 -1.54004 209.309 21.104)"/></g><g style="stroke-width:.90218633"><path d="M0 0c3.067.215 7.015.54 9.594 2.338.21.146.074.431-.167.396-1.482-.213-2.906-.864-4.36-1.234A32.152 32.152 0 0 0 0 .653C-.413.615-.423-.03 0 0" style="fill:#006696;fill-opacity:1;fill-rule:nonzero;stroke:none;stroke-width:.90218633" transform="matrix(1.41825 0 0 -1.54004 209.822 24.65)"/></g><g style="stroke-width:.90218633"><path d="M0 0c4.369-.717 9.402-.748 13.457 1.272.307.153.081.585-.222.525C8.773.919 4.778.05.192.699-.261.763-.464.076 0 0" style="fill:#006696;fill-opacity:1;fill-rule:nonzero;stroke:none;stroke-width:.90218633" transform="matrix(1.41825 0 0 -1.54004 210.976 29.3)"/></g><g style="stroke-width:.90218633"><path d="m0 0-19.244-8.488 6.824-20.656 23.885-.237S5.944-10.535 0 0" style="fill:#ffccc3;fill-opacity:1;fill-rule:nonzero;stroke:none;stroke-width:.90218633" transform="matrix(1.41825 0 0 -1.54004 221.764 204.918)"/></g><g style="stroke-width:.90218633"><g clip-path="url(#a)" style="opacity:.22000098;stroke-width:.90218633" transform="matrix(1.41825 0 0 -1.54004 -204.477 535.844)"><g style="stroke-width:.90218633"><path d="M0 0c-.377-.031-.664-.016-.955-.273-.152-.134-.152-.421 0-.555.291-.258.578-.242.955-.274C.708-1.16.71.059 0 0" style="fill:#303030;fill-opacity:1;fill-rule:nonzero;stroke:none;stroke-width:.90218633" transform="translate(214.037 275.17)"/></g></g></g><g style="stroke-width:.90218633"><g clip-path="url(#b)" style="opacity:.22000098;stroke-width:.90218633" transform="matrix(1.41825 0 0 -1.54004 -204.477 535.844)"><g style="stroke-width:.90218633"><path d="M0 0c.716 0 .717 1.113 0 1.113C-.716 1.113-.718 0 0 0" style="fill:#303030;fill-opacity:1;fill-rule:nonzero;stroke:none;stroke-width:.90218633" transform="translate(208.953 268.639)"/></g></g></g><g style="stroke-width:.90218633"><g clip-path="url(#c)" style="opacity:.22000098;stroke-width:.90218633" transform="matrix(1.41825 0 0 -1.54004 -204.477 535.844)"><g style="stroke-width:.90218633"><path d="M0 0c.648 0 .649 1.008 0 1.008C-.648 1.008-.65 0 0 0" style="fill:#303030;fill-opacity:1;fill-rule:nonzero;stroke:none;stroke-width:.90218633" transform="translate(284.54 289.028)"/></g></g></g><g style="stroke-width:.90218633"><g clip-path="url(#d)" style="opacity:.22000098;stroke-width:.90218633" transform="matrix(1.41825 0 0 -1.54004 -204.477 535.844)"><g style="stroke-width:.90218633"><path d="M0 0c.663 0 .665 1.031 0 1.031C-.663 1.031-.665 0 0 0" style="fill:#303030;fill-opacity:1;fill-rule:nonzero;stroke:none;stroke-width:.90218633" transform="translate(282.166 294.44)"/></g></g></g><g style="stroke-width:.90218633"><g clip-path="url(#e)" style="opacity:.22000098;stroke-width:.90218633" transform="matrix(1.41825 0 0 -1.54004 -204.477 535.844)"><g style="stroke-width:.90218633"><path d="M0 0c.686 0 .687 1.066 0 1.066S-.687 0 0 0" style="fill:#303030;fill-opacity:1;fill-rule:nonzero;stroke:none;stroke-width:.90218633" transform="translate(297.419 201.212)"/></g></g></g><g style="stroke-width:.90218633"><g clip-path="url(#f)" style="opacity:.22000098;stroke-width:.90218633" transform="matrix(1.41825 0 0 -1.54004 -204.477 535.844)"><g style="stroke-width:.90218633"><path d="M0 0c.626 0 .627.973 0 .973C-.626.973-.627 0 0 0" style="fill:#303030;fill-opacity:1;fill-rule:nonzero;stroke:none;stroke-width:.90218633" transform="translate(302.164 196.513)"/></g></g></g><g style="stroke-width:.90218633"><g clip-path="url(#g)" style="opacity:.22000098;stroke-width:.90218633" transform="matrix(1.41825 0 0 -1.54004 -204.477 535.844)"><g style="stroke-width:.90218633"><path d="M0 0c.032 0 .032.05 0 .05S-.032 0 0 0" style="fill:#303030;fill-opacity:1;fill-rule:nonzero;stroke:none;stroke-width:.90218633" transform="translate(300.13 205.448)"/></g></g></g></svg>